<?xml version="1.0" standalone="no"?>
<!DOCTYPE svg PUBLIC "-//W3C//DTD SVG 20010904//EN"
 "http://www.w3.org/TR/2001/REC-SVG-20010904/DTD/svg10.dtd">
<svg version="1.0" xmlns="http://www.w3.org/2000/svg"
 width="152.000000pt" height="192.000000pt" viewBox="0 0 152.000000 192.000000"
 preserveAspectRatio="xMidYMid meet">

<g transform="translate(0.000000,192.000000) scale(0.100000,-0.100000)"
fill="#000000" stroke="none">
<path d="M0 960 l0 -960 760 0 760 0 0 960 -1 960 -760 0 -759 0 0 -960z
m1014 794 c5 -12 14 -15 37 -10 43 8 69 -8 69 -44 0 -20 5 -30 15 -30 16 0 39
-46 30 -60 -3 -4 -14 -6 -25 -3 -15 4 -21 -1 -26 -23 -4 -16 -15 -36 -24 -46
-16 -18 -18 -18 -42 1 -15 13 -33 18 -47 14 -25 -6 -71 37 -71 68 0 10 -4 19
-10 19 -20 0 -10 45 13 55 14 6 22 19 22 34 0 15 8 27 20 32 29 11 32 11 39
-7z m-19 -234 c394 -228 412 -239 419 -255 3 -9 6 -185 6 -390 l0 -374 -72
-43 c-159 -92 -554 -309 -575 -314 -15 -4 -110 44 -342 173 l-321 178 0 395 0
395 258 148 c141 81 286 164 322 186 36 22 67 38 70 37 3 -2 109 -63 235 -136z
m267 32 c17 -32 17 -35 1 -62 -13 -23 -22 -28 -48 -26 -46 4 -61 17 -68 56 -6
32 -4 36 26 51 46 24 68 19 89 -19z"/>
<path d="M983 1674 c-7 -19 34 -64 59 -64 22 0 35 45 18 65 -16 20 -69 19 -77
-1z"/>
<path d="M500 1447 c-146 -84 -273 -158 -283 -163 -14 -8 30 -38 250 -166 147
-85 277 -160 288 -166 18 -9 61 13 290 147 149 87 270 162 269 167 -1 9 -114
78 -379 232 -71 41 -139 81 -150 88 -19 12 -45 0 -285 -139z m324 82 c36 -16
48 -27 52 -49 7 -31 36 -45 65 -29 25 13 25 13 69 -27 48 -43 53 -79 15 -112
-14 -12 -25 -27 -25 -32 0 -18 30 -70 40 -70 18 0 10 -40 -15 -80 -27 -42 -39
-47 -79 -29 -33 16 -72 -9 -81 -51 -4 -20 -13 -30 -25 -30 -11 0 -31 -5 -46
-12 -24 -11 -29 -10 -53 19 -14 17 -34 42 -43 56 -16 23 -20 24 -59 14 -44
-11 -47 -9 -95 59 -17 25 -6 67 20 77 25 10 20 60 -10 87 -19 19 -24 31 -19
50 13 50 77 91 112 72 20 -12 53 1 53 21 0 11 64 87 73 87 3 0 25 -9 51 -21z"/>
<path d="M725 1328 c-22 -26 -26 -39 -21 -66 7 -44 30 -70 70 -77 44 -9 82 9
101 46 32 60 -13 129 -84 129 -32 0 -44 -6 -66 -32z"/>
<path d="M160 862 l0 -337 248 -134 c136 -74 264 -145 285 -158 l37 -23 -2
337 -3 336 -270 158 c-148 87 -276 159 -282 159 -10 0 -13 -74 -13 -338z m299
67 c80 -44 153 -87 161 -95 12 -12 16 -53 19 -208 3 -183 2 -195 -16 -204 -16
-9 -47 5 -172 73 -84 46 -159 89 -167 96 -19 16 -21 405 -1 412 23 10 31 7
176 -74z"/>
<path d="M330 781 l0 -159 118 -64 c64 -35 120 -65 125 -66 4 -2 6 67 5 154
l-3 158 -55 31 c-30 17 -85 48 -122 68 l-68 38 0 -160z"/>
<path d="M1265 1153 c-44 -26 -167 -98 -272 -160 l-193 -114 0 -331 c0 -307 1
-330 17 -324 31 12 508 279 526 294 16 14 17 43 17 349 0 183 -3 333 -7 333
-5 -1 -44 -22 -88 -47z m-11 -155 c13 -18 16 -56 16 -210 l0 -188 -37 -23
c-112 -69 -303 -167 -317 -161 -24 9 -27 34 -24 228 l3 180 160 97 c88 53 165
97 172 98 6 0 19 -9 27 -21z"/>
<path d="M1073 869 l-123 -71 0 -160 0 -160 43 24 c23 14 81 46 130 73 l87 49
0 158 c0 87 -3 158 -7 158 -5 0 -63 -32 -130 -71z"/>
<path d="M1194 1535 c-8 -19 3 -35 26 -35 19 0 30 17 23 38 -6 17 -42 15 -49
-3z"/>
</g>
</svg>
