<?xml version="1.0" standalone="no"?>
<!DOCTYPE svg PUBLIC "-//W3C//DTD SVG 20010904//EN"
 "http://www.w3.org/TR/2001/REC-SVG-20010904/DTD/svg10.dtd">
<svg version="1.0" xmlns="http://www.w3.org/2000/svg"
 width="207.000000pt" height="251.000000pt" viewBox="0 0 207.000000 251.000000"
 preserveAspectRatio="xMidYMid meet">

<g transform="translate(0.000000,251.000000) scale(0.100000,-0.100000)"
fill="#000000" stroke="none">
<path d="M1397 2259 c-11 -6 -16 -17 -13 -27 7 -20 -37 -72 -59 -72 -10 0 -15
-11 -15 -35 0 -23 5 -35 14 -35 19 0 39 -51 31 -81 -7 -30 25 -54 58 -43 32
11 69 4 83 -14 10 -13 16 -14 43 -2 24 9 31 18 28 31 -6 24 29 69 53 69 10 0
20 10 24 23 9 36 7 45 -12 52 -24 7 -42 47 -35 74 10 37 -13 52 -71 45 -41 -5
-55 -3 -65 10 -15 18 -38 20 -64 5z m120 -111 c27 -25 29 -45 7 -76 -18 -26
-75 -30 -94 -7 -20 24 -15 67 10 87 29 24 49 23 77 -4z"/>
<path d="M1080 2097 c-35 -18 -108 -61 -223 -129 -54 -32 -102 -58 -107 -58
-6 0 -10 -4 -10 -10 0 -5 -4 -10 -10 -10 -10 0 -163 -87 -212 -121 -15 -11
-29 -19 -32 -19 -7 0 -188 -107 -203 -120 -10 -8 -13 -125 -13 -519 l0 -509
266 -144 c146 -78 296 -159 333 -179 36 -19 101 -54 143 -77 42 -23 86 -42 97
-42 16 0 177 78 206 100 6 4 44 26 85 47 89 47 208 111 270 145 25 14 81 45
125 68 44 24 97 54 118 67 l37 23 0 504 c0 474 -1 504 -18 519 -10 10 -22 17
-26 17 -4 0 -20 8 -34 19 -15 10 -85 52 -157 93 -71 42 -181 105 -244 142 -62
36 -115 66 -118 66 -2 0 -16 8 -31 18 -52 36 -179 110 -198 116 -10 3 -30 0
-44 -7z m78 -84 l47 -28 -55 -5 -55 -5 -9 -42 c-6 -30 -15 -44 -30 -49 -11 -4
-34 -16 -49 -27 -25 -17 -34 -18 -64 -9 -19 6 -40 9 -46 6 -7 -2 -25 -29 -42
-59 l-29 -55 29 -30 c24 -25 29 -38 29 -87 1 -51 -2 -60 -29 -85 l-30 -28 30
-57 30 -58 54 3 c36 2 59 -2 70 -12 9 -8 28 -19 42 -25 19 -7 29 -20 36 -48
l9 -38 71 -3 72 -3 11 40 c8 32 19 44 58 66 38 22 55 25 92 20 l45 -6 30 53
c33 60 33 74 -1 100 -20 17 -24 28 -24 77 0 48 4 61 25 81 28 26 31 53 10 90
-8 14 -14 28 -15 32 0 7 98 -48 230 -128 36 -22 82 -47 103 -57 59 -28 57 -30
-113 -128 -58 -34 -130 -76 -160 -94 -30 -18 -71 -42 -90 -53 -81 -45 -238
-137 -275 -160 -22 -14 -47 -25 -55 -25 -9 1 -56 25 -105 54 -50 28 -133 77
-185 107 -52 30 -108 63 -124 71 -17 9 -35 20 -40 24 -12 9 -168 100 -234 137
-23 13 -42 29 -42 35 0 7 62 47 138 90 75 43 180 105 233 137 54 32 99 58 101
58 3 0 60 34 129 75 68 41 125 74 127 75 2 0 24 -12 50 -27z m204 -121 c27
-15 48 -30 48 -33 0 -4 -11 -10 -25 -13 -23 -6 -50 5 -122 49 -2 1 -6 17 -10
35 l-6 34 34 -22 c19 -12 55 -35 81 -50z m-132 -162 c26 -14 60 -73 60 -104 0
-60 -62 -126 -118 -126 -38 0 -92 30 -107 61 -8 15 -15 47 -15 70 0 33 6 47
34 75 29 29 41 34 81 34 25 0 55 -4 65 -10z m-761 -261 c36 -22 73 -44 81 -49
31 -18 189 -110 300 -174 63 -36 122 -71 130 -76 8 -6 33 -21 55 -33 l40 -23
3 -424 c1 -233 -2 -428 -6 -432 -7 -7 -153 62 -237 113 -16 10 -55 32 -85 47
-135 71 -394 213 -406 223 -12 9 -14 89 -14 449 0 240 3 439 6 443 7 7 38 -8
133 -64z m1419 -377 l2 -440 -27 -19 c-16 -11 -111 -64 -213 -118 -102 -54
-228 -122 -280 -150 -187 -104 -213 -116 -221 -108 -5 5 -8 200 -7 433 l3 423
115 69 c63 37 124 73 135 79 19 12 85 50 300 174 55 32 116 68 135 81 19 12
40 22 45 20 6 -2 11 -160 13 -444z"/>
<path d="M477 1273 c-4 -3 -7 -127 -7 -273 0 -202 3 -270 13 -278 6 -6 41 -26
77 -45 36 -19 123 -67 195 -106 132 -72 168 -83 179 -55 3 9 6 128 6 265 l0
249 -42 27 c-44 28 -179 107 -258 151 -25 14 -61 36 -80 49 -34 22 -70 30 -83
16z m239 -184 l154 -91 0 -204 c0 -112 -3 -204 -7 -204 -4 0 -78 38 -164 85
l-158 86 -3 72 c-6 135 3 347 13 347 6 0 80 -41 165 -91z"/>
<path d="M1521 1175 c-100 -57 -195 -114 -212 -125 l-29 -21 0 -249 c0 -137 3
-255 6 -264 3 -9 16 -16 28 -16 11 0 113 51 226 113 l205 112 3 255 c1 140 0
265 -3 278 -3 12 -13 22 -23 22 -10 0 -100 -47 -201 -105z m163 -12 c11 -34 4
-382 -8 -397 -6 -8 -49 -34 -96 -59 -47 -24 -116 -61 -154 -82 -46 -24 -71
-33 -76 -26 -3 6 -7 93 -8 194 -2 135 1 187 10 199 15 19 296 187 315 188 6 0
14 -8 17 -17z"/>
<path d="M1682 2020 c-7 -11 -21 -20 -31 -20 -23 0 -35 -28 -21 -45 6 -7 10
-26 8 -42 -2 -23 1 -29 20 -31 12 -2 28 -12 35 -23 15 -24 33 -24 47 0 5 11
20 21 32 23 21 3 23 8 23 62 0 55 -2 59 -24 61 -13 1 -29 9 -36 18 -16 23 -37
21 -53 -3z m52 -53 c28 -21 17 -52 -19 -52 -33 0 -45 25 -25 50 15 18 21 19
44 2z"/>
</g>
</svg>
