<?xml version="1.0" encoding="UTF-8"?>
<svg version="1.1" xmlns="http://www.w3.org/2000/svg" width="1024" height="1024">
<path d="M0 0 C337.92 0 675.84 0 1024 0 C1024 337.92 1024 675.84 1024 1024 C686.08 1024 348.16 1024 0 1024 C0 686.08 0 348.16 0 0 Z " fill="#FDFDFD" transform="translate(0,0)"/>
<path d="M0 0 C0.98766357 0.00249756 1.97532715 0.00499512 2.99291992 0.00756836 C4.80046753 0.02122437 4.80046753 0.02122437 6.64453125 0.03515625 C12.49171875 0.06609375 12.49171875 0.06609375 18.45703125 0.09765625 C18.78703125 15.27765625 19.11703125 30.45765625 19.45703125 46.09765625 C20.44703125 46.42765625 21.43703125 46.75765625 22.45703125 47.09765625 C22.45481064 47.93037552 22.45259003 48.76309479 22.45030212 49.62104797 C22.43027553 57.46381676 22.415045 65.30657696 22.40521908 73.14936543 C22.39999769 77.1815379 22.39291351 81.21368928 22.3815918 85.24584961 C22.37073653 89.13617854 22.3647488 93.02648716 22.36215401 96.91683006 C22.36030453 98.40200305 22.35669304 99.8871749 22.35130119 101.37233925 C22.34405576 103.45048055 22.34304179 105.52853758 22.34350586 107.60668945 C22.34128525 108.79027542 22.33906464 109.97386139 22.33677673 111.1933136 C22.3256315 114.16464097 22.3256315 114.16464097 23.45703125 117.09765625 C28.95626874 117.17176996 34.45521604 117.22624089 39.95483398 117.26245117 C41.82597924 117.27754498 43.69708908 117.29802214 45.56811523 117.32397461 C48.25643651 117.36033218 50.94429038 117.3773764 53.6328125 117.390625 C54.47040604 117.40610886 55.30799957 117.42159271 56.17097473 117.43754578 C60.46809194 117.57430174 60.46809194 117.57430174 64.18254089 115.73652649 C65.67926656 114.10149398 65.67926656 114.10149398 65.76953125 111.53515625 C65.68669872 108.91969206 65.68669872 108.91969206 63.45703125 107.09765625 C60.3494711 106.72443198 60.3494711 106.72443198 56.69921875 106.68359375 C55.4860498 106.6479834 54.27288086 106.61237305 53.02294922 106.57568359 C50.70094482 106.52468506 50.70094482 106.52468506 48.33203125 106.47265625 C43.42328125 106.34890625 38.51453125 106.22515625 33.45703125 106.09765625 C33.12703125 86.62765625 32.79703125 67.15765625 32.45703125 47.09765625 C47.96703125 47.09765625 63.47703125 47.09765625 79.45703125 47.09765625 C79.12703125 48.08765625 78.79703125 49.07765625 78.45703125 50.09765625 C78.35289852 52.15170942 78.30842278 54.20897209 78.29589844 56.265625 C78.28148712 58.17275269 78.28148712 58.17275269 78.26678467 60.1184082 C78.2619378 61.5073224 78.2576587 62.89623867 78.25390625 64.28515625 C78.24815351 65.70857749 78.24239579 67.13199872 78.2366333 68.55541992 C78.22613459 71.53792685 78.220284 74.52040689 78.21679688 77.50292969 C78.21130303 81.32644415 78.18725173 85.14960413 78.15882492 88.9730072 C78.14021547 91.91207933 78.13499394 94.85106558 78.133461 97.79019165 C78.13043198 99.20002183 78.12239498 100.60985041 78.10927582 102.0196228 C78.09224663 103.9895729 78.09593584 105.95966929 78.10058594 107.9296875 C78.09694031 109.05093018 78.09329468 110.17217285 78.08953857 111.32739258 C78.23765667 114.09466419 78.23765667 114.09466419 79.77662659 115.95889282 C82.58437166 117.86162344 85.35478623 117.48752374 88.6875 117.49609375 C89.39675125 117.49896393 90.1060025 117.50183411 90.83674622 117.50479126 C92.33884478 117.506832 93.84096991 117.50130132 95.34301758 117.48876953 C97.6192743 117.47283308 99.89372327 117.48855407 102.16992188 117.5078125 C111.80683597 117.52220912 120.23874957 117.0609501 127.71875 110.234375 C136.09655865 99.93625964 138.43880099 88.06279194 137.45703125 75.09765625 C135.80815428 65.44949777 132.04364305 58.37166379 124.45703125 52.09765625 C121.54324315 50.4030816 118.66802753 49.11485129 115.45703125 48.09765625 C115.45703125 47.76765625 115.45703125 47.43765625 115.45703125 47.09765625 C125.35703125 47.09765625 135.25703125 47.09765625 145.45703125 47.09765625 C145.45703125 99.23765625 145.45703125 151.37765625 145.45703125 205.09765625 C137.20703125 205.09765625 128.95703125 205.09765625 120.45703125 205.09765625 C122.46742285 203.08726465 123.77103066 202.44936971 126.33203125 201.34765625 C131.24477766 198.95358236 133.24265838 195.69420623 135.53125 190.80078125 C137.48187721 185.10527902 137.57526033 178.3587243 135.6171875 172.6484375 C132.71942243 167.52612552 128.6103503 164.75743382 123.45703125 162.09765625 C124.57078125 161.29328125 124.57078125 161.29328125 125.70703125 160.47265625 C129.85317504 156.8918957 132.18254214 154.43219999 132.84375 148.80859375 C133.00618141 143.48756473 133.03596393 139.34128941 130.76953125 134.47265625 C124.38886144 127.91953591 118.31148619 125.93546789 109.31695557 125.76846313 C108.2493399 125.76512466 108.2493399 125.76512466 107.16015625 125.76171875 C106.40410095 125.75506195 105.64804565 125.74840515 104.86907959 125.74154663 C103.28595386 125.73150043 101.70278647 125.72672709 100.11962891 125.72705078 C97.69884709 125.72264134 95.27983964 125.68614249 92.859375 125.6484375 C91.31380827 125.64257474 89.76823296 125.63860173 88.22265625 125.63671875 C87.50281555 125.62234772 86.78297485 125.60797668 86.0413208 125.59317017 C82.85382151 125.62224433 80.86917159 125.79566819 78.2661438 127.70298767 C75.84581581 130.90670398 75.96185867 132.90455781 75.97119141 136.89819336 C75.96549637 137.91114723 75.96549637 137.91114723 75.95968628 138.94456482 C75.95229064 141.17185256 75.97364929 143.39782863 75.99609375 145.625 C75.99847921 147.17672065 75.99938328 148.72844423 75.99887085 150.28016663 C76.00199729 153.53095609 76.01854805 156.78130404 76.04541016 160.03198242 C76.07936158 164.19265872 76.08703939 168.35284944 76.08551979 172.51364803 C76.08606453 175.7179068 76.09704875 178.92206005 76.11152267 182.12628365 C76.11787414 183.66003178 76.1218257 185.19379184 76.12331009 186.72755241 C76.12766241 188.87448204 76.14520479 191.0209046 76.16650391 193.16772461 C76.1741275 194.38809921 76.1817511 195.60847382 76.18960571 196.86582947 C76.33031767 200.49030477 76.33031767 200.49030477 78.45703125 205.09765625 C65.25703125 205.09765625 52.05703125 205.09765625 38.45703125 205.09765625 C42.45703125 202.09765625 42.45703125 202.09765625 45.33203125 200.41015625 C53.62013108 194.27696237 56.69276064 185.95193647 58.45703125 176.09765625 C58.55226344 174.52401778 58.6046076 172.94730875 58.61816406 171.37084961 C58.63257538 170.00935036 58.63257538 170.00935036 58.64727783 168.62034607 C58.65152771 167.65250687 58.65577759 166.68466766 58.66015625 165.6875 C58.66585632 164.68304337 58.6715564 163.67858673 58.6774292 162.64369202 C58.68685596 160.52476041 58.69340392 158.40581429 58.69726562 156.28686523 C58.70700709 153.04319971 58.73806704 149.80015856 58.76953125 146.55664062 C58.77605832 144.49609751 58.78130995 142.43554987 58.78515625 140.375 C58.80367645 138.92020485 58.80367645 138.92020485 58.8225708 137.4360199 C58.81806915 136.07924889 58.81806915 136.07924889 58.81347656 134.69506836 C58.81712219 133.90184677 58.82076782 133.10862518 58.82452393 132.29136658 C58.3544464 129.48528638 57.44400026 128.11716265 55.45703125 126.09765625 C51.87303718 125.68072772 51.87303718 125.68072772 48.45703125 126.09765625 C46.86274346 127.69194404 47.32432312 129.35752051 47.31518555 131.56640625 C47.30815109 132.51829834 47.30111664 133.47019043 47.29386902 134.45092773 C47.2876226 136.00855835 47.2876226 136.00855835 47.28125 137.59765625 C47.25803414 139.78646776 47.23391611 141.97526986 47.20898438 144.1640625 C47.17398598 147.62229542 47.14459942 151.08018647 47.13110352 154.53857422 C47.11554395 157.87119472 47.07526059 161.20280534 47.03125 164.53515625 C47.03315842 165.55738281 47.03506683 166.57960938 47.03703308 167.6328125 C46.91134083 175.08024143 45.5623392 181.48134825 40.60546875 187.25390625 C40.02023437 187.69734375 39.435 188.14078125 38.83203125 188.59765625 C38.24164062 189.06171875 37.65125 189.52578125 37.04296875 190.00390625 C32.37482411 193.22331635 26.926232 192.61307831 21.45703125 192.09765625 C16.27145557 189.59746797 12.79488303 185.97699304 10.36361694 180.74440002 C9.43741848 178.04039749 9.20597666 176.03171184 9.20166016 173.18725586 C9.19470123 172.23954819 9.18774231 171.29184052 9.18057251 170.31541443 C9.18156952 169.30382767 9.18256653 168.29224091 9.18359375 167.25 C9.16331392 165.09699992 9.14246332 162.94400516 9.12109375 160.79101562 C9.09844856 157.40482072 9.08200315 154.01883565 9.07617188 150.63256836 C9.06667107 147.35882928 9.03293383 144.0860294 8.99609375 140.8125 C9.00366196 139.29208351 9.00366196 139.29208351 9.01138306 137.74095154 C9.00981631 132.23928286 9.00981631 132.23928286 6.58349609 127.45532227 C3.92971913 125.76098774 2.54892505 125.54270095 -0.54296875 126.09765625 C-2.71231284 127.73006057 -3.45949221 128.61901406 -3.9306488 131.32055664 C-3.93605179 132.18672607 -3.94145477 133.05289551 -3.94702148 133.9453125 C-3.95970566 134.93063965 -3.97238983 135.9159668 -3.98545837 136.93115234 C-3.98252274 137.99672363 -3.9795871 139.06229492 -3.9765625 140.16015625 C-3.98180435 141.26182129 -3.9870462 142.36348633 -3.9924469 143.49853516 C-3.99887752 145.83544065 -3.99751674 148.17237847 -3.98901367 150.50927734 C-3.98056731 154.0562663 -4.00914902 157.60161037 -4.04101562 161.1484375 C-4.0426295 163.4231766 -4.04204655 165.69791853 -4.0390625 167.97265625 C-4.05591347 169.54672241 -4.05591347 169.54672241 -4.07310486 171.15258789 C-3.98283993 180.87619924 -1.48397435 189.68999887 4.6640625 197.37109375 C7.80777076 200.39836837 11.5220516 202.27882121 15.45703125 204.09765625 C15.45703125 204.42765625 15.45703125 204.75765625 15.45703125 205.09765625 C4.56703125 205.09765625 -6.32296875 205.09765625 -17.54296875 205.09765625 C-17.21296875 202.12765625 -16.88296875 199.15765625 -16.54296875 196.09765625 C-20.1492809 192.4913441 -22.2709472 192.62921307 -27.0546875 192.5859375 C-27.78291214 192.5679863 -28.51113678 192.5500351 -29.26142883 192.53153992 C-31.58438346 192.47741412 -33.90713241 192.44353545 -36.23046875 192.41015625 C-37.80666926 192.376985 -39.38284263 192.34249552 -40.95898438 192.30664062 C-44.82016411 192.22168695 -48.68128262 192.15488749 -52.54296875 192.09765625 C-52.55842995 190.94253792 -52.55842995 190.94253792 -52.57420349 189.76408386 C-52.67214602 182.50988268 -52.77465586 175.25576729 -52.88230801 168.00170422 C-52.93749271 164.27224351 -52.99090556 160.54277489 -53.0402832 156.81323242 C-53.08799249 153.21460982 -53.14033762 149.61608188 -53.1959095 146.0175724 C-53.21630332 144.6440701 -53.2350213 143.27054187 -53.25204277 141.89699364 C-53.27615232 139.9744814 -53.30675113 138.05205384 -53.33764648 136.12963867 C-53.35319077 135.03487717 -53.36873505 133.94011566 -53.38475037 132.81217957 C-53.43032531 130.00143521 -53.43032531 130.00143521 -54.54296875 127.09765625 C-55.97564179 126.82133357 -57.4146021 126.57745954 -58.85546875 126.34765625 C-59.65597656 126.2084375 -60.45648437 126.06921875 -61.28125 125.92578125 C-63.649471 125.86166849 -63.649471 125.86166849 -65.16105652 127.68336487 C-67.00074141 130.89741514 -66.91719102 133.20159433 -66.9152832 136.89819336 C-66.91893387 137.57349594 -66.92258453 138.24879852 -66.92634583 138.94456482 C-66.93443599 141.17163429 -66.92085333 143.39797252 -66.90625 145.625 C-66.90573114 147.1767222 -66.90624983 148.72844507 -66.90776062 150.28016663 C-66.90767096 153.53087184 -66.89725591 156.78132874 -66.87915039 160.03198242 C-66.8564823 164.19264383 -66.85591638 168.3529419 -66.86266804 172.51364803 C-66.8660148 175.71789257 -66.85936432 178.92205475 -66.8495388 182.12628365 C-66.84569728 183.66003551 -66.84453423 185.19379656 -66.84612465 186.72755241 C-66.84649681 188.87445292 -66.83383289 191.02089343 -66.81762695 193.16772461 C-66.81301956 194.38809921 -66.80841217 195.60847382 -66.80366516 196.86582947 C-66.67149863 200.49054074 -66.67149863 200.49054074 -64.54296875 205.09765625 C-72.79296875 205.09765625 -81.04296875 205.09765625 -89.54296875 205.09765625 C-86.62893613 203.15496784 -83.68488299 201.63370321 -80.54296875 200.09765625 C-80.02710447 195.236449 -80.02710447 195.236449 -82.16796875 191.09765625 C-86.18357627 189.40687414 -89.35910413 190.66017736 -93.3125 192.12109375 C-100.4385948 194.27529411 -108.79181013 194.50189073 -115.54296875 191.09765625 C-121.34664463 187.29338454 -125.47649293 181.70850875 -127.54296875 175.09765625 C-128.3392805 165.95859004 -128.87220904 156.00269601 -123.54296875 148.09765625 C-119.05217428 143.18354918 -114.6446884 139.32155958 -107.86328125 138.83203125 C-106.46484405 138.82674415 -105.06633121 138.83226143 -103.66796875 138.84765625 C-102.97316406 138.83992187 -102.27835937 138.8321875 -101.5625 138.82421875 C-97.15559874 138.84081725 -93.65345357 139.57039338 -89.54296875 141.09765625 C-85.39269382 141.42316801 -84.068713 141.44815242 -80.54296875 139.09765625 C-80.17934057 136.89040552 -80.17934057 136.89040552 -80.35546875 134.47265625 C-80.38253906 133.65539062 -80.40960938 132.838125 -80.4375 131.99609375 C-80.47230469 131.36960937 -80.50710938 130.743125 -80.54296875 130.09765625 C-81.57357422 129.79021484 -81.57357422 129.79021484 -82.625 129.4765625 C-83.52605469 129.20714844 -84.42710937 128.93773437 -85.35546875 128.66015625 C-86.24878906 128.39332031 -87.14210938 128.12648438 -88.0625 127.8515625 C-89.8976993 127.29377752 -91.72330601 126.7042105 -93.54296875 126.09765625 C-107.19484114 125.34002833 -118.58944221 126.05852985 -129.54296875 135.09765625 C-137.06473471 142.07165595 -141.34471898 148.73960551 -141.8828125 159.0859375 C-141.93002697 160.94369566 -141.96237082 162.80188634 -141.98046875 164.66015625 C-141.99078125 165.54670898 -142.00109375 166.43326172 -142.01171875 167.34667969 C-141.8674996 178.13507364 -138.0923664 188.29799165 -130.55078125 196.1796875 C-127.10421234 199.2685936 -123.58451936 201.82428403 -119.54296875 204.09765625 C-119.54296875 204.42765625 -119.54296875 204.75765625 -119.54296875 205.09765625 C-122.18296875 205.09765625 -124.82296875 205.09765625 -127.54296875 205.09765625 C-127.76984375 204.3809375 -127.99671875 203.66421875 -128.23046875 202.92578125 C-129.82167474 199.4971112 -131.8366987 197.47525566 -134.54296875 194.84765625 C-135.87328125 193.54054688 -135.87328125 193.54054688 -137.23046875 192.20703125 C-140.3746489 189.33902909 -141.93928774 188.96991766 -146.08447266 188.89233398 C-147.02529694 188.87238876 -147.96612122 188.85244354 -148.93545532 188.83189392 C-149.95320038 188.81518143 -150.97094543 188.79846893 -152.01953125 188.78125 C-153.58010757 188.75007835 -153.58010757 188.75007835 -155.17221069 188.71827698 C-158.50406124 188.65275753 -161.83599225 188.59388533 -165.16796875 188.53515625 C-167.42318549 188.49197331 -169.67839402 188.4483591 -171.93359375 188.40429688 C-177.46996639 188.29707373 -183.00641953 188.19531179 -188.54296875 188.09765625 C-185.21113448 185.31692131 -181.89006124 183.03137243 -178.09375 180.93359375 C-177.08119141 180.36898437 -176.06863281 179.804375 -175.02539062 179.22265625 C-173.97931641 178.64515625 -172.93324219 178.06765625 -171.85546875 177.47265625 C-169.76655776 176.31681763 -167.67923522 175.15810213 -165.59375 173.99609375 C-164.67247314 173.48739746 -163.75119629 172.97870117 -162.80200195 172.45458984 C-160.44942845 171.16548779 -160.44942845 171.16548779 -158.54296875 169.09765625 C-158.3550496 166.47739904 -158.2911109 163.9637431 -158.31591797 161.34326172 C-158.31562592 160.54317688 -158.31533386 159.74309204 -158.31503296 158.91876221 C-158.31642919 156.26734672 -158.33200405 153.61621031 -158.34765625 150.96484375 C-158.35138534 149.12924351 -158.3542328 147.29364127 -158.35623169 145.45803833 C-158.36387635 140.62138393 -158.38353195 135.78484922 -158.40563965 130.94824219 C-158.42608018 126.01499043 -158.43522956 121.08171938 -158.4453125 116.1484375 C-158.46677708 106.4647911 -158.50092303 96.78123362 -158.54296875 87.09765625 C-159.17111984 86.757379 -159.79927094 86.41710175 -160.44645691 86.06651306 C-163.32730305 84.50454702 -166.20662727 82.93979538 -169.0859375 81.375 C-170.07396362 80.83983765 -171.06198975 80.30467529 -172.07995605 79.7532959 C-178.45972317 76.28294659 -184.67990571 72.66159664 -190.82421875 68.7890625 C-194.64967235 66.40914669 -198.57539336 64.23009987 -202.54296875 62.09765625 C-200.6953125 60.5546875 -200.6953125 60.5546875 -198.54296875 59.09765625 C-196.10546875 59.78515625 -196.10546875 59.78515625 -193.54296875 61.09765625 C-192.61484375 61.46890625 -191.68671875 61.84015625 -190.73046875 62.22265625 C-190.00859375 62.51140625 -189.28671875 62.80015625 -188.54296875 63.09765625 C-188.87296875 60.78765625 -189.20296875 58.47765625 -189.54296875 56.09765625 C-186.54296875 54.09765625 -186.54296875 54.09765625 -183.54296875 54.09765625 C-183.54296875 52.44765625 -183.54296875 50.79765625 -183.54296875 49.09765625 C-185.19296875 48.43765625 -186.84296875 47.77765625 -188.54296875 47.09765625 C-187.88296875 44.45765625 -187.22296875 41.81765625 -186.54296875 39.09765625 C-185.22296875 39.42765625 -183.90296875 39.75765625 -182.54296875 40.09765625 C-182.54296875 41.74765625 -182.54296875 43.39765625 -182.54296875 45.09765625 C-178.32877115 46.26840115 -174.1878922 46.32441229 -169.83984375 46.4140625 C-169.00205383 46.4348436 -168.16426392 46.45562469 -167.30108643 46.47703552 C-164.63179519 46.54228175 -161.96240777 46.60129983 -159.29296875 46.66015625 C-157.48045891 46.70336519 -155.6679587 46.74698024 -153.85546875 46.79101562 C-149.41806666 46.89793754 -144.98056807 46.99927491 -140.54296875 47.09765625 C-140.87296875 48.08765625 -141.20296875 49.07765625 -141.54296875 50.09765625 C-141.64224937 52.18773821 -141.68124841 54.28086408 -141.68823242 56.37329102 C-141.69461227 57.66795792 -141.70099213 58.96262482 -141.70756531 60.29652405 C-141.70909363 61.71070315 -141.71020778 63.12488276 -141.7109375 64.5390625 C-141.7141503 65.98729994 -141.7175144 67.43553705 -141.72102356 68.8837738 C-141.72700963 71.91755934 -141.72886389 74.9513164 -141.72827148 77.98510742 C-141.72816966 81.87814222 -141.74184518 85.77099547 -141.75904369 89.66398716 C-141.77014242 92.65362899 -141.77219139 95.64322655 -141.77166176 98.63288689 C-141.7728442 100.06864996 -141.77728068 101.5044141 -141.78499413 102.94015694 C-141.79475464 104.94388621 -141.79066197 106.94766865 -141.78588867 108.95141602 C-141.78731369 110.0926442 -141.78873871 111.23387238 -141.79020691 112.40968323 C-141.81790935 115.24896139 -141.81790935 115.24896139 -139.54296875 117.09765625 C-137.00658726 117.33449842 -134.58305941 117.44993255 -132.04296875 117.46875 C-131.29265381 117.47777847 -130.54233887 117.48680695 -129.76928711 117.49610901 C-128.17549637 117.51063725 -126.58164565 117.51950463 -124.98779297 117.52319336 C-122.57933422 117.53497831 -120.17353383 117.58403373 -117.765625 117.63476562 C-109.24289685 117.72545122 -101.54852317 117.6808737 -94.54296875 112.09765625 C-92.70391358 109.79735994 -91.73293205 107.83974559 -90.54296875 105.09765625 C-90.21296875 104.43765625 -89.88296875 103.77765625 -89.54296875 103.09765625 C-89.04595739 97.72830399 -88.59652843 92.04442324 -91.04296875 87.09765625 C-94.10841683 83.41911856 -97.14150148 81.8176471 -101.54296875 80.09765625 C-101.54296875 79.43765625 -101.54296875 78.77765625 -101.54296875 78.09765625 C-100.77984375 77.68515625 -100.01671875 77.27265625 -99.23046875 76.84765625 C-95.69470838 74.54530066 -94.8836302 73.11964059 -93.54296875 69.09765625 C-92.90513041 62.64937277 -92.56656249 57.48295237 -96.54296875 52.09765625 C-98.5067151 50.71148236 -100.50209067 49.36753594 -102.54296875 48.09765625 C-102.54296875 47.76765625 -102.54296875 47.43765625 -102.54296875 47.09765625 C-93.63296875 47.09765625 -84.72296875 47.09765625 -75.54296875 47.09765625 C-75.87296875 48.41765625 -76.20296875 49.73765625 -76.54296875 51.09765625 C-76.64512806 52.57072044 -76.70085546 54.04744712 -76.7199707 55.52392578 C-76.73280594 56.39228058 -76.74564117 57.26063538 -76.75886536 58.15530396 C-76.76625229 59.08760834 -76.77363922 60.01991272 -76.78125 60.98046875 C-76.79335762 62.43463699 -76.79335762 62.43463699 -76.80570984 63.91818237 C-76.81953129 65.97082746 -76.8302621 68.02349535 -76.83813477 70.07617188 C-76.84963196 72.16315503 -76.87004769 74.25010931 -76.8996582 76.33691406 C-76.94259579 79.36413408 -76.95854196 82.39048096 -76.96875 85.41796875 C-76.99501213 86.79820724 -76.99501213 86.79820724 -77.02180481 88.20632935 C-76.99600847 96.02985749 -75.02320601 103.16893876 -70.23046875 109.47265625 C-63.1903288 116.34907202 -56.34499412 117.41527665 -46.796875 117.30859375 C-39.27323085 116.82086652 -32.80819714 113.50914098 -27.54296875 108.09765625 C-23.83807016 102.29270376 -21.42078316 96.57227284 -21.41357422 89.65209961 C-21.40884598 88.34570778 -21.40884598 88.34570778 -21.40402222 87.01292419 C-21.40604645 86.08053421 -21.40807068 85.14814423 -21.41015625 84.1875 C-21.40919952 83.22364883 -21.4082428 82.25979767 -21.40725708 81.26673889 C-21.40657731 79.23178034 -21.40841745 77.19681961 -21.41259766 75.16186523 C-21.41795458 72.04340767 -21.41264279 68.92509375 -21.40625 65.80664062 C-21.4069107 63.82942676 -21.4081917 61.85221299 -21.41015625 59.875 C-21.4071199 58.47337868 -21.4071199 58.47337868 -21.40402222 57.04344177 C-21.40717438 56.17566605 -21.41032654 55.30789032 -21.41357422 54.41381836 C-21.41436981 53.65088974 -21.41516541 52.88796112 -21.41598511 52.10191345 C-21.47044855 49.8892009 -21.47044855 49.8892009 -22.54296875 47.09765625 C-21.22296875 46.76765625 -19.90296875 46.43765625 -18.54296875 46.09765625 C-18.04796875 23.82265625 -18.04796875 23.82265625 -17.54296875 1.09765625 C-5.16796875 -0.02734375 -5.16796875 -0.02734375 0 0 Z " fill="#050506" transform="translate(583.54296875,370.90234375)"/>
<path d="M0 0 C0 23.76 0 47.52 0 72 C-8.91 76.95 -17.82 81.9 -27 87 C-31.62688664 89.58011609 -36.25301315 92.16118223 -40.875 94.75 C-41.90367187 95.32492187 -42.93234375 95.89984375 -43.9921875 96.4921875 C-44.9821875 97.04648437 -45.9721875 97.60078125 -46.9921875 98.171875 C-48.26618408 98.8848877 -48.26618408 98.8848877 -49.56591797 99.61230469 C-51.29435284 100.59770327 -52.99990072 101.62373462 -54.68798828 102.67675781 C-57 104 -57 104 -59 104 C-59.30198313 95.01203822 -59.53255876 86.02583504 -59.67355824 77.0338974 C-59.74125635 72.85768311 -59.83294331 68.68495131 -59.98071289 64.51074219 C-60.12259231 60.47740422 -60.19980736 56.44739981 -60.23340416 52.41175842 C-60.25732155 50.87715631 -60.30404105 49.3427258 -60.37449074 47.80955505 C-60.58724394 42.98499834 -60.54460273 38.64149556 -59 34 C-55.05934848 30.2229685 -50.97944688 28.25123898 -46 26 C-43.89134033 24.79604058 -41.79296224 23.57367338 -39.7109375 22.32421875 C-37.60008669 21.11001544 -35.48808505 19.89781087 -33.375 18.6875 C-31.11316442 17.38822419 -28.85144675 16.0887431 -26.58984375 14.7890625 C-25.48366699 14.15387695 -24.37749023 13.51869141 -23.23779297 12.86425781 C-20.19655019 11.11316975 -17.1612324 9.35241174 -14.12890625 7.5859375 C-13.24605957 7.07200439 -12.36321289 6.55807129 -11.45361328 6.02856445 C-9.80912359 5.07036917 -8.16552904 4.1106355 -6.52294922 3.14916992 C-1.11071062 0 -1.11071062 0 0 0 Z " fill="#050506" transform="translate(421,466)"/>
<path d="M0 0 C3.9059352 1.26382897 7.32206456 2.59219194 10.8515625 4.6953125 C11.77251709 5.23905518 12.69347168 5.78279785 13.64233398 6.34301758 C14.62661377 6.93107178 15.61089355 7.51912598 16.625 8.125 C18.75313571 9.38281503 20.88207797 10.63926617 23.01171875 11.89453125 C24.6985376 12.88960693 24.6985376 12.88960693 26.41943359 13.90478516 C33.34581618 17.9716102 40.34121346 21.92049363 47.32672119 25.88458252 C49.09222479 26.88664404 50.85668446 27.89054414 52.62109375 28.89453125 C53.6361499 29.47050049 54.65120605 30.04646973 55.69702148 30.63989258 C58 32 58 32 59 33 C59.09429342 35.17805719 59.11742538 37.3592128 59.11352539 39.53930664 C59.11367142 40.22220261 59.11381744 40.90509857 59.1139679 41.60868835 C59.11326876 43.87587614 59.1054764 46.14298274 59.09765625 48.41015625 C59.09579207 49.97814387 59.09436817 51.54613207 59.09336853 53.11412048 C59.08954334 57.24876503 59.07971306 61.38337466 59.06866455 65.51800537 C59.05845044 69.73400398 59.05387091 73.95000822 59.04882812 78.16601562 C59.03809079 86.44402647 59.02101436 94.7220089 59 103 C55.12620661 101.74406885 51.68456394 100.42185642 48.15625 98.3828125 C46.79705444 97.60454102 46.79705444 97.60454102 45.41040039 96.81054688 C43.9697522 95.97620117 43.9697522 95.97620117 42.5 95.125 C40.44747513 93.94901758 38.3940658 92.77457774 36.33984375 91.6015625 C35.29296387 91.00375977 34.24608398 90.40595703 33.16748047 89.79003906 C27.27624898 86.46072588 21.31993016 83.25051566 15.359375 80.04736328 C14.50988281 79.5882959 13.66039062 79.12922852 12.78515625 78.65625 C12.05176025 78.26244141 11.31836426 77.86863281 10.56274414 77.46289062 C9.71703857 76.98013672 8.87133301 76.49738281 8 76 C7.32319183 75.76392532 6.64638367 75.52785065 5.94906616 75.28462219 C3.308469 74.14470659 1.84811762 73.22570351 0 71 C-1.16139107 65.67555162 -0.93051702 60.39270737 -0.78125 54.98046875 C-0.7663205 53.39580646 -0.75493681 51.81110713 -0.74694824 50.22639465 C-0.71646792 46.0644758 -0.6379467 41.90480692 -0.54931641 37.74377441 C-0.46733247 33.49420614 -0.43091038 29.24427255 -0.390625 24.99414062 C-0.30494287 16.66173024 -0.16849218 8.33114533 0 0 Z " fill="#060707" transform="translate(296,467)"/>
<path d="M0 0 C2.36558543 1.16199331 4.56411412 2.33666529 6.8125 3.6875 C7.73869141 4.23096069 7.73869141 4.23096069 8.68359375 4.78540039 C12.74979503 7.19226404 16.71601293 9.72189187 20.62109375 12.3828125 C31.10067365 19.50686189 41.89734026 25.90074666 53 32 C51.72550183 35.82349452 50.51923536 36.1362998 47.05859375 38.08203125 C46.01082764 38.67790039 44.96306152 39.27376953 43.88354492 39.88769531 C42.17775269 40.84047363 42.17775269 40.84047363 40.4375 41.8125 C39.2667507 42.47520759 38.09659068 43.13895723 36.92700195 43.80371094 C35.11641726 44.8324933 33.30542412 45.86048601 31.49247742 46.88510132 C25.18945883 50.44763845 18.93665413 54.0937915 12.6875 57.75 C11.68710693 58.33370361 10.68671387 58.91740723 9.65600586 59.51879883 C4.49665404 62.49206348 4.49665404 62.49206348 -0.48901367 65.73925781 C-3 67 -3 67 -5.54980469 66.82470703 C-7.96566169 66.01155787 -9.9989407 65.08065962 -12.203125 63.8046875 C-13.0065332 63.34328369 -13.80994141 62.88187988 -14.63769531 62.40649414 C-15.49975586 61.90110107 -16.36181641 61.39570801 -17.25 60.875 C-18.60883301 60.08887329 -18.60883301 60.08887329 -19.99511719 59.28686523 C-28.5118344 54.3375522 -36.95715755 49.26640977 -45.38378906 44.16552734 C-51.19237441 40.65377625 -57.03589416 37.24132118 -63 34 C-63 33.34 -63 32.68 -63 32 C-61.93640259 31.38910522 -61.93640259 31.38910522 -60.85131836 30.76586914 C-57.54586995 28.86620771 -54.24130026 26.96502595 -50.9375 25.0625 C-50.34076477 24.71886414 -49.74402954 24.37522827 -49.12921143 24.0211792 C-42.34392737 20.11142262 -35.5723891 16.1841659 -28.875 12.125 C-25.46484375 10.078125 -25.46484375 10.078125 -23.78466797 9.07226562 C-22.49745135 8.29887912 -21.21294671 7.52097252 -19.93017578 6.74023438 C-17.7755286 5.43497358 -15.608265 4.15323459 -13.4375 2.875 C-12.78185059 2.47168457 -12.12620117 2.06836914 -11.45068359 1.65283203 C-7.18553378 -0.82260588 -4.71046373 -1.54736869 0 0 Z " fill="#F8F8F7" transform="translate(363,427)"/>
<path d="M0 0 C2.47004218 1.20201384 4.77284148 2.41890931 7.125 3.8125 C7.73214844 4.15603516 8.33929688 4.49957031 8.96484375 4.85351562 C12.45350468 6.87906713 15.29534993 9.00604656 18 12 C11.7947494 13.19331742 11.7947494 13.19331742 8.6875 12.4375 C6.28331094 10.3894871 5.98474132 7.95422395 5 5 C3.36954287 3.39260542 3.36954287 3.39260542 1 3 C-3.66029854 3.40170032 -3.66029854 3.40170032 -8 5 C-8.61875 6.7325 -8.61875 6.7325 -9.25 8.5 C-10.11625 10.2325 -10.11625 10.2325 -11 12 C-14.04898832 12.99423532 -16.44315799 13.01325814 -19.625 12.9375 C-22.26776607 13.00704648 -23.74779943 13.66536263 -26 15 C-25.979375 15.721875 -25.95875 16.44375 -25.9375 17.1875 C-25.99820559 19.91925138 -26.39258535 22.34256091 -27 25 C-26.34 25.309375 -25.68 25.61875 -25 25.9375 C-22.55823502 28.45557014 -22.72857594 29.28107372 -22.75 32.6875 C-22.81423833 34.1259798 -22.89163547 35.56416999 -23 37 C-24.65 37 -26.3 37 -28 37 C-27.87625 38.299375 -27.7525 39.59875 -27.625 40.9375 C-27.52058594 42.03384766 -27.52058594 42.03384766 -27.4140625 43.15234375 C-27.20910156 44.06693359 -27.20910156 44.06693359 -27 45 C-26.01 45.495 -26.01 45.495 -25 46 C-24.375 48.0625 -24.375 48.0625 -24 50 C-23.33613281 49.96519531 -22.67226563 49.93039062 -21.98828125 49.89453125 C-12.6264379 49.60752583 -12.6264379 49.60752583 -9 53 C-8.63557767 54.66014616 -8.30027117 56.32706064 -8 58 C-6.40563594 59.54910181 -6.40563594 59.54910181 -4 60 C-0.44683978 59.68831928 2.61773432 59.12742189 6 58 C6.103125 57.05125 6.20625 56.1025 6.3125 55.125 C7 52 7 52 10 50 C12.69921875 49.8046875 12.69921875 49.8046875 15.6875 49.875 C16.68136719 49.89304687 17.67523438 49.91109375 18.69921875 49.9296875 C19.83810547 49.96449219 19.83810547 49.96449219 21 50 C21.28875 49.21625 21.5775 48.4325 21.875 47.625 C23 45 23 45 25 43 C25.64767793 40.42938689 25.64767793 40.42938689 26 38 C24.35 37.34 22.7 36.68 21 36 C21 33.36 21 30.72 21 28 C21.99 27.67 22.98 27.34 24 27 C24.33 25.02 24.66 23.04 25 21 C24.34 21 23.68 21 23 21 C23 19.02 23 17.04 23 15 C29.72273471 18.70991897 36.39951745 22.49647033 43.0625 26.3125 C44.50399414 27.13717773 44.50399414 27.13717773 45.97460938 27.97851562 C48.31669158 29.31851291 50.6584826 30.65901609 53 32 C51.72550183 35.82349452 50.51923536 36.1362998 47.05859375 38.08203125 C46.01082764 38.67790039 44.96306152 39.27376953 43.88354492 39.88769531 C42.17775269 40.84047363 42.17775269 40.84047363 40.4375 41.8125 C39.2667507 42.47520759 38.09659068 43.13895723 36.92700195 43.80371094 C35.11641726 44.8324933 33.30542412 45.86048601 31.49247742 46.88510132 C25.18945883 50.44763845 18.93665413 54.0937915 12.6875 57.75 C11.68710693 58.33370361 10.68671387 58.91740723 9.65600586 59.51879883 C4.49665404 62.49206348 4.49665404 62.49206348 -0.48901367 65.73925781 C-3 67 -3 67 -5.54980469 66.82470703 C-7.96566169 66.01155787 -9.9989407 65.08065962 -12.203125 63.8046875 C-13.0065332 63.34328369 -13.80994141 62.88187988 -14.63769531 62.40649414 C-15.49975586 61.90110107 -16.36181641 61.39570801 -17.25 60.875 C-18.60883301 60.08887329 -18.60883301 60.08887329 -19.99511719 59.28686523 C-28.5118344 54.3375522 -36.95715755 49.26640977 -45.38378906 44.16552734 C-51.19237441 40.65377625 -57.03589416 37.24132118 -63 34 C-63 33.34 -63 32.68 -63 32 C-61.93640259 31.38910522 -61.93640259 31.38910522 -60.85131836 30.76586914 C-57.54586995 28.86620771 -54.24130026 26.96502595 -50.9375 25.0625 C-50.34076477 24.71886414 -49.74402954 24.37522827 -49.12921143 24.0211792 C-42.34392737 20.11142262 -35.5723891 16.1841659 -28.875 12.125 C-25.46484375 10.078125 -25.46484375 10.078125 -23.78466797 9.07226562 C-22.49745135 8.29887912 -21.21294671 7.52097252 -19.93017578 6.74023438 C-17.7755286 5.43497358 -15.608265 4.15323459 -13.4375 2.875 C-12.78185059 2.47168457 -12.12620117 2.06836914 -11.45068359 1.65283203 C-7.18104153 -0.82521313 -4.71364766 -1.55062328 0 0 Z " fill="#080909" transform="translate(363,427)"/>
<path d="M0 0 C3.69230769 0.69230769 3.69230769 0.69230769 5 2 C5.09268999 3.35094982 5.11747326 4.70667091 5.11352539 6.06079102 C5.11344986 6.92160782 5.11337433 7.78242462 5.11329651 8.66932678 C5.10813522 9.60473801 5.10297394 10.54014923 5.09765625 11.50390625 C5.0962413 12.45692123 5.09482635 13.40993622 5.09336853 14.39183044 C5.08775152 17.44875165 5.07519616 20.50560077 5.0625 23.5625 C5.05748719 25.62955624 5.05292391 27.69661362 5.04882812 29.76367188 C5.03777656 34.84247588 5.02050055 39.9212257 5 45 C-1.1041305 48.51219081 -7.21729788 52.00805047 -13.34082031 55.48632812 C-14.96482598 56.41075294 -16.58703956 57.33834684 -18.20605469 58.27148438 C-19.9850548 59.29648897 -21.773342 60.30533096 -23.5625 61.3125 C-25.01849609 62.14201172 -25.01849609 62.14201172 -26.50390625 62.98828125 C-29 64 -29 64 -31.27734375 63.73046875 C-33 63 -33 63 -34 62 C-34.41426366 56.26867157 -34.52810756 50.53649541 -34.62475586 44.79199219 C-34.66636564 42.85754201 -34.72768652 40.92340893 -34.80932617 38.99023438 C-35.47023482 23.08482051 -35.47023482 23.08482051 -32.14916992 18.37548828 C-29.52113557 16.48873487 -26.97543407 15.26358419 -24 14 C-21.99932373 12.85284669 -20.00854864 11.68827573 -18.02734375 10.5078125 C-16.00035755 9.37489298 -13.97038163 8.24730654 -11.9375 7.125 C-9.88336891 5.98311119 -7.82994233 4.83995379 -5.77734375 3.6953125 C-4.88265381 3.20047363 -3.98796387 2.70563477 -3.06616211 2.19580078 C-1.0773402 1.16327426 -1.0773402 1.16327426 0 0 Z " fill="#EDEEEE" transform="translate(406,486)"/>
<path d="M0 0 C3.78597826 0.47181009 6.65768177 1.6888162 9.984375 3.51171875 C11.38816406 4.27838867 11.38816406 4.27838867 12.8203125 5.06054688 C13.78710938 5.59744141 14.75390625 6.13433594 15.75 6.6875 C17.17699219 7.46383789 17.17699219 7.46383789 18.6328125 8.25585938 C33.35069444 16.35069444 33.35069444 16.35069444 37 20 C37.08874135 23.10251201 37.11518455 26.1826812 37.09765625 29.28515625 C37.0962413 30.21597519 37.09482635 31.14679413 37.09336853 32.1058197 C37.08775172 35.09141191 37.0751964 38.07693029 37.0625 41.0625 C37.05748716 43.08137913 37.05292388 45.10025943 37.04882812 47.11914062 C37.03777683 52.07945572 37.02050095 57.03971532 37 62 C33.72144775 63.07063269 32.29304545 63.1191626 29.04907227 61.80004883 C27.98229248 61.19185303 26.9155127 60.58365723 25.81640625 59.95703125 C25.23841782 59.63216232 24.66042938 59.3072934 24.06492615 58.97257996 C22.22284832 57.93253367 20.393019 56.87273082 18.5625 55.8125 C17.33600539 55.11786968 16.10879769 54.42449687 14.88085938 53.73242188 C11.56750025 51.85350635 8.26705132 49.9588843 5 48 C3.89253418 47.46487793 2.78506836 46.92975586 1.64404297 46.37841797 C-1.29311302 43.73633361 -1.41785275 43.3366643 -1.69702148 39.61450195 C-1.70282135 37.82225906 -1.67547543 36.0297083 -1.62109375 34.23828125 C-1.61497574 33.29188278 -1.60885773 32.34548431 -1.60255432 31.3704071 C-1.57561816 28.35002085 -1.50644048 25.33218907 -1.4375 22.3125 C-1.41597819 20.26760422 -1.39706701 18.22267918 -1.38085938 16.17773438 C-1.33869528 12.45057045 -1.29352052 8.72377412 -1.20874023 4.99731445 C-1.18492531 3.87290703 -1.18492531 3.87290703 -1.16062927 2.7257843 C-1 1 -1 1 0 0 Z " fill="#F2F2F3" transform="translate(308,487)"/>
<path d="M0 0 C11.55 0 23.1 0 35 0 C34.94882935 6.26328721 34.88572076 12.52414184 34.79248047 18.78662109 C34.76435057 20.91447005 34.74309654 23.04242194 34.72900391 25.17041016 C34.70746392 28.2391398 34.66075629 31.30664211 34.609375 34.375 C34.60753204 35.78954468 34.60753204 35.78954468 34.60565186 37.23266602 C34.44531831 44.55330889 32.90078691 50.17359224 27.5625 55.375 C22.54002857 58.55998188 19.10962419 59.43409739 13.21875 58.609375 C8.9815907 57.44564815 6.14464381 54.88939015 3.85778809 51.11462402 C2.89945429 48.75213415 2.73671116 47.02178528 2.71289062 44.47851562 C2.69947632 43.59079468 2.68606201 42.70307373 2.67224121 41.78845215 C2.66696411 40.83732544 2.66168701 39.88619873 2.65625 38.90625 C2.6416272 37.92257446 2.62700439 36.93889893 2.61193848 35.92541504 C2.54972043 31.7197754 2.5100825 27.51398933 2.46826172 23.30810547 C2.43451823 20.23649781 2.38940856 17.16519988 2.34375 14.09375 C2.3384729 13.14262329 2.3331958 12.19149658 2.32775879 11.21154785 C2.31434448 10.3238269 2.30093018 9.43610596 2.28710938 8.52148438 C2.27981812 7.74301147 2.27252686 6.96453857 2.26501465 6.16247559 C2.0717211 3.58495351 2.0717211 3.58495351 0 0 Z " fill="#030303" transform="translate(517,418)"/>
<path d="M0 0 C22 0 22 0 30 6 C35.22710989 13.08865139 34.88314292 22.61915389 34 31 C32.41779227 37.84438175 29.86322628 42.13276564 24 46 C16.40394839 48.5320172 8.00694143 47 0 47 C0 31.49 0 15.98 0 0 Z " fill="#050606" transform="translate(674,430)"/>
<path d="M0 0 C0.99 0 1.98 0 3 0 C3 10.89 3 21.78 3 33 C-0.898125 35.124375 -4.79625 37.24875 -8.8125 39.4375 C-10.03815674 40.1070874 -11.26381348 40.7766748 -12.52661133 41.46655273 C-13.97716919 42.25461304 -13.97716919 42.25461304 -15.45703125 43.05859375 C-16.44678955 43.59798584 -17.43654785 44.13737793 -18.45629883 44.69311523 C-21 46 -21 46 -24 47 C-24 36.11 -24 25.22 -24 14 C-12.5625 7.5625 -12.5625 7.5625 -8.95141602 5.53344727 C-8.01998779 5.00807373 -7.08855957 4.4827002 -6.12890625 3.94140625 C-5.17056885 3.40201416 -4.21223145 2.86262207 -3.22485352 2.30688477 C-1.10085689 1.18471061 -1.10085689 1.18471061 0 0 Z " fill="#080808" transform="translate(402,495)"/>
<path d="M0 0 C3.65357103 1.46142841 6.71628422 2.87932955 10.08203125 4.8203125 C10.9222583 5.30258301 11.76248535 5.78485352 12.62817383 6.28173828 C13.67900146 6.89001465 14.7298291 7.49829102 15.8125 8.125 C19.174375 10.06375 22.53625 12.0025 26 14 C26 24.89 26 35.78 26 47 C17.19596052 42.59798026 8.54630424 37.88360243 0 33 C0 22.11 0 11.22 0 0 Z " fill="#060607" transform="translate(313,495)"/>
<path d="M0 0 C0.625 2.3125 0.625 2.3125 1 5 C0.01 6.485 0.01 6.485 -1 8 C-0.34 8.66 0.32 9.32 1 10 C1.125 13.125 1.125 13.125 1 16 C0.01 16.33 -0.98 16.66 -2 17 C-2 17.66 -2 18.32 -2 19 C-1.01 19.33 -0.02 19.66 1 20 C1.125 22.875 1.125 22.875 1 26 C0.34 26.66 -0.32 27.32 -1 28 C-0.34 28.66 0.32 29.32 1 30 C1.25 33 1.25 33 1 36 C0.34 36.66 -0.32 37.32 -1 38 C-0.34 38.66 0.32 39.32 1 40 C0.94140625 42.12890625 0.94140625 42.12890625 0.5625 44.5625 C0.33844108 46.03657187 0.14232008 47.51580484 0 49 C0.33 49.33 0.66 49.66 1 50 C1.04080783 51.99958364 1.04254356 54.00045254 1 56 C-0.485 56.495 -0.485 56.495 -2 57 C-2 57.66 -2 58.32 -2 59 C-1.01 59 -0.02 59 1 59 C1.35882213 62.22939919 1.27258004 63.61209763 -0.625 66.3125 C-3.65761415 68.46725216 -5.3553145 68.55462605 -9 68 C-11.24503291 64.63245064 -11.24149579 63.55887075 -11.21118164 59.62646484 C-11.20780289 58.52877777 -11.20442413 57.4310907 -11.20094299 56.30014038 C-11.18748337 55.11570343 -11.17402374 53.93126648 -11.16015625 52.7109375 C-11.15495468 51.49677155 -11.14975311 50.28260559 -11.14439392 49.03164673 C-11.12654712 45.14597744 -11.09535944 41.26056913 -11.0625 37.375 C-11.03494159 33.4823153 -11.01023945 29.58966642 -10.99131775 25.69692993 C-10.97899854 23.27190831 -10.96133589 20.84690722 -10.93800354 18.42196655 C-10.93147263 17.3305838 -10.92494171 16.23920105 -10.91821289 15.11474609 C-10.90995987 14.14894623 -10.90170685 13.18314636 -10.89320374 12.18807983 C-10.75331588 10.02275264 -10.75331588 10.02275264 -12 9 C-12.04080783 7.00041636 -12.04254356 4.99954746 -12 3 C-7.77050005 0.58314288 -4.87664009 -0.34833144 0 0 Z " fill="#F5F5F3" transform="translate(589,419)"/>
<path d="M0 0 C3.89625106 -0.08098443 7.7908163 -0.14049807 11.6875 -0.1875 C12.79029297 -0.21263672 13.89308594 -0.23777344 15.02929688 -0.26367188 C16.09599609 -0.27333984 17.16269531 -0.28300781 18.26171875 -0.29296875 C19.24100342 -0.3086792 20.22028809 -0.32438965 21.22924805 -0.34057617 C24.4966933 0.06105271 26.35539654 1.07199121 29 3 C30.33278232 5.66556463 30.2795909 7.83646998 30.375 10.8125 C30.44847656 12.36904297 30.44847656 12.36904297 30.5234375 13.95703125 C30 17 30 17 28.27734375 19.8671875 C23.15053326 23.20358622 18.15648066 22.52985784 12.1875 22.3125 C11.01767578 22.28994141 9.84785156 22.26738281 8.64257812 22.24414062 C5.76116952 22.18533637 2.88042058 22.09565972 0 22 C0 14.74 0 7.48 0 0 Z " fill="#020203" transform="translate(675,541)"/>
<path d="M0 0 C3.01125 -0.061875 6.0225 -0.12375 9.125 -0.1875 C10.06230957 -0.21481201 10.99961914 -0.24212402 11.96533203 -0.27026367 C17.08138781 -0.32093387 20.57029547 0.15036141 25 3 C27 5 27 5 27.265625 7.0234375 C27.26046875 7.79945313 27.2553125 8.57546875 27.25 9.375 C27.25515625 10.14585937 27.2603125 10.91671875 27.265625 11.7109375 C26.96544451 14.29778699 26.45338118 15.83832545 25 18 C21.92989821 19.91711555 19.60245382 20.23905431 16.015625 20.1953125 C15.08105469 20.18886719 14.14648438 20.18242187 13.18359375 20.17578125 C12.21550781 20.15902344 11.24742187 20.14226562 10.25 20.125 C9.26644531 20.11597656 8.28289062 20.10695313 7.26953125 20.09765625 C4.84624974 20.07412925 2.42309369 20.03825937 0 20 C0 13.4 0 6.8 0 0 Z " fill="#090909" transform="translate(454,457)"/>
<path d="M0 0 C3.37586685 -0.10831658 6.74823231 -0.18746727 10.125 -0.25 C11.07632813 -0.28351563 12.02765625 -0.31703125 13.0078125 -0.3515625 C19.04042178 -0.43534874 22.37846288 0.03002385 27 4 C28.55950551 5.55950551 28.28196698 7.08877131 28.375 9.25 C28.42398438 10.01828125 28.47296875 10.7865625 28.5234375 11.578125 C27.67724821 15.49332918 26.29398866 16.7226251 23 19 C19.0436284 19.60722554 15.17804952 19.47095187 11.1875 19.3125 C10.11306641 19.28994141 9.03863281 19.26738281 7.93164062 19.24414062 C5.28716112 19.18537441 2.64340067 19.09569833 0 19 C0 12.73 0 6.46 0 0 Z " fill="#0D0D0E" transform="translate(674,509)"/>
<path d="M0 0 C1.87890625 0.6796875 1.87890625 0.6796875 4.50390625 2.4921875 C5.44140625 5.1796875 5.44140625 5.1796875 5.50390625 7.4921875 C4.88515625 7.5540625 4.26640625 7.6159375 3.62890625 7.6796875 C1.32923771 8.29213647 1.32923771 8.29213647 0.44140625 10.4921875 C0.13203125 11.4821875 -0.17734375 12.4721875 -0.49609375 13.4921875 C-1.03635016 15.09682967 -1.57810236 16.70096875 -2.12109375 18.3046875 C-2.57484375 19.6865625 -3.02859375 21.0684375 -3.49609375 22.4921875 C-7.12609375 22.8221875 -10.75609375 23.1521875 -14.49609375 23.4921875 C-14.68945312 22.64914062 -14.8828125 21.80609375 -15.08203125 20.9375 C-15.34242188 19.84179688 -15.6028125 18.74609375 -15.87109375 17.6171875 C-16.25394531 15.98136719 -16.25394531 15.98136719 -16.64453125 14.3125 C-17.2851559 11.38810295 -17.2851559 11.38810295 -19.49609375 9.4921875 C-21.56483409 8.849664 -21.56483409 8.849664 -23.49609375 8.4921875 C-23.87109375 6.2421875 -23.87109375 6.2421875 -23.49609375 3.4921875 C-16.70199038 -2.20241212 -8.38907039 -1.70669664 0 0 Z " fill="#F3F4F3" transform="translate(592.49609375,374.5078125)"/>
<path d="M0 0 C1.32 0.33 2.64 0.66 4 1 C4 2.65 4 4.3 4 6 C5.32 6.66 6.64 7.32 8 8 C7.01 8.66 6.02 9.32 5 10 C4.26656572 13.06556598 4.26656572 13.06556598 4 16 C6.64 15.67 9.28 15.34 12 15 C12 15.66 12 16.32 12 17 C13.32 17.33 14.64 17.66 16 18 C17.6442351 22.93270529 16.18615592 25.54024193 14 30 C11.36 29.67 8.72 29.34 6 29 C6 30.98 6 32.96 6 35 C-1.33333333 31 -8.66666667 27 -16 23 C-14.15234375 21.45703125 -14.15234375 21.45703125 -12 20 C-9.5625 20.6875 -9.5625 20.6875 -7 22 C-6.071875 22.37125 -5.14375 22.7425 -4.1875 23.125 C-3.465625 23.41375 -2.74375 23.7025 -2 24 C-2.33 21.69 -2.66 19.38 -3 17 C0 15 0 15 3 15 C3 13.35 3 11.7 3 10 C1.35 9.34 -0.3 8.68 -2 8 C-1.34 5.36 -0.68 2.72 0 0 Z " fill="#1B1A19" transform="translate(397,410)"/>
<path d="M0 0 C3.08356805 -0.05399244 6.16618888 -0.09366955 9.25 -0.125 C10.55904297 -0.15013672 10.55904297 -0.15013672 11.89453125 -0.17578125 C12.73886719 -0.18222656 13.58320313 -0.18867188 14.453125 -0.1953125 C15.22817383 -0.20578613 16.00322266 -0.21625977 16.80175781 -0.22705078 C19.29907849 0.03089105 20.87839667 0.67239594 23 2 C24.44430855 4.88861709 24.37688506 6.79647701 24 10 C21.95429526 12.86984345 20.38040027 14.74805389 16.80761719 15.40014648 C14.25027965 15.49206194 11.74333625 15.43638468 9.1875 15.3125 C8.30384766 15.28994141 7.42019531 15.26738281 6.50976562 15.24414062 C4.3391109 15.18547428 2.1693331 15.09579979 0 15 C0 10.05 0 5.1 0 0 Z " fill="#060808" transform="translate(454,430)"/>
<path d="M0 0 C2.82689795 1.25639909 4.47004961 2.32551768 6.375 4.75 C7.31697802 8.14112087 6.84752199 10.60991203 6 14 C3.32830441 17.27498169 1.4175916 18.84248982 -2.8125 19.3125 C-6.7307645 18.92835642 -8.21293267 17.70743683 -11 15 C-12.61469184 11.77061633 -12.58079278 8.49143247 -12 5 C-8.60369897 0.05992578 -5.86842367 -0.83834624 0 0 Z " fill="#0C0E0D" transform="translate(365,449)"/>
<path d="M0 0 C0.66 0 1.32 0 2 0 C2.1875 2.875 2.1875 2.875 2 6 C1.01 6.66 0.02 7.32 -1 8 C-1.33 8.99 -1.66 9.98 -2 11 C0.475 11.495 0.475 11.495 3 12 C3 14.31 3 16.62 3 19 C-2.01494563 17.20147111 -6.41620787 14.46050701 -10.91601562 11.65820312 C-14.32286724 9.55627807 -14.32286724 9.55627807 -18.19921875 9.1640625 C-19.09060547 9.57785156 -19.09060547 9.57785156 -20 10 C-20.95132812 10.37318359 -20.95132812 10.37318359 -21.921875 10.75390625 C-22.52515625 11.02074219 -23.1284375 11.28757812 -23.75 11.5625 C-24.8225 12.036875 -25.895 12.51125 -27 13 C-27 10.36 -27 7.72 -27 5 C-18.42 5 -9.84 5 -1 5 C-0.67 3.35 -0.34 1.7 0 0 Z " fill="#201F1F" transform="translate(375,411)"/>
<path d="M0 0 C2.47004218 1.20201384 4.77284148 2.41890931 7.125 3.8125 C7.73214844 4.15603516 8.33929688 4.49957031 8.96484375 4.85351562 C12.45350468 6.87906713 15.29534993 9.00604656 18 12 C11.7947494 13.19331742 11.7947494 13.19331742 8.6875 12.4375 C6.28331094 10.3894871 5.98474132 7.95422395 5 5 C3.36954287 3.39260542 3.36954287 3.39260542 1 3 C-3.66029854 3.40170032 -3.66029854 3.40170032 -8 5 C-8.4125 6.155 -8.825 7.31 -9.25 8.5 C-10.11625 10.2325 -10.11625 10.2325 -11 12 C-14.04898832 12.99423532 -16.44315799 13.01325814 -19.625 12.9375 C-22.26776607 13.00704648 -23.74779943 13.66536263 -26 15 C-26 16.65 -26 18.3 -26 20 C-26.33 20 -26.66 20 -27 20 C-27.15907544 13.00068043 -27.15907544 13.00068043 -26 10 C-23.04158828 7.63911344 -19.63826458 5.98224594 -16.3125 4.1875 C-14.96381836 3.4150293 -14.96381836 3.4150293 -13.58789062 2.62695312 C-5.19721243 -1.97160639 -5.19721243 -1.97160639 0 0 Z " fill="#131313" transform="translate(363,427)"/>
<path d="M0 0 C0 0.66 0 1.32 0 2 C1.32 2.33 2.64 2.66 4 3 C5.6442351 7.93270529 4.18615592 10.54024193 2 15 C-1.63 15 -5.26 15 -9 15 C-9.08333357 10.1666528 -8.95261487 5.76307437 -8 1 C-5.10765685 0.17361624 -3.11257569 0 0 0 Z " fill="#E6E5E4" transform="translate(409,425)"/>
<path d="M0 0 C0.33 0 0.66 0 1 0 C1.18372036 4.04184793 0.89813257 6.4568192 -1 10 C-0.67 10.66 -0.34 11.32 0 12 C-11.88 18.93 -11.88 18.93 -24 26 C-24.33 24.68 -24.66 23.36 -25 22 C-24.195625 21.79375 -23.39125 21.5875 -22.5625 21.375 C-21.2940625 20.694375 -21.2940625 20.694375 -20 20 C-19.3355782 17.01349195 -19.3355782 17.01349195 -19 14 C-15.57905758 11.71937172 -14.31812778 11.78074993 -10.3125 11.875 C-8.82169922 11.90207031 -8.82169922 11.90207031 -7.30078125 11.9296875 C-6.54152344 11.95289063 -5.78226562 11.97609375 -5 12 C-4.71125 11.21625 -4.4225 10.4325 -4.125 9.625 C-3 7 -3 7 -1 5 C-0.35232207 2.42938689 -0.35232207 2.42938689 0 0 Z " fill="#121111" transform="translate(389,465)"/>
<path d="M0 0 C3.11733407 1.16900028 6.05172018 2.52693759 9 4.0625 C11.98662055 5.58409267 14.64024934 6.58003117 18 7 C16.35 8.65 14.7 10.3 13 12 C7.03347646 10.42986223 2.17090975 7.24970218 -3 4 C-2.01 3.34 -1.02 2.68 0 2 C0 1.34 0 0.68 0 0 Z " fill="#EFECE9" transform="translate(366,424)"/>
<path d="M0 0 C2.45327682 1.18706943 3.47654 2.673012 4.9375 4.9375 C4.25 6.875 4.25 6.875 2.9375 8.9375 C0.3125 9.6875 0.3125 9.6875 -2.0625 9.9375 C-6.0625 5.1875 -6.0625 5.1875 -6.0625 2.9375 C-4.0220076 0.96988233 -2.89219316 -0.08764222 0 0 Z " fill="#151514" transform="translate(387.0625,415.0625)"/>
<path d="M0 0 C6.72253472 3.17180135 12.91805372 6.72500877 19 11 C16 13 16 13 12.9375 12.6875 C10 12 10 12 8 11 C7.814375 10.05125 7.62875 9.1025 7.4375 8.125 C6.3472374 4.89574449 6.3472374 4.89574449 3.87109375 3.9375 C1.59404799 3.19630201 -0.66906032 2.54676363 -3 2 C-2.01 1.34 -1.02 0.68 0 0 Z " fill="#2C2C2B" transform="translate(362,427)"/>
<path d="M0 0 C1.32 0 2.64 0 4 0 C4 0.66 4 1.32 4 2 C5.32 2.33 6.64 2.66 8 3 C7.67 3.66 7.34 4.32 7 5 C6.7525 5.680625 6.505 6.36125 6.25 7.0625 C5 9 5 9 2.375 9.75 C1.59125 9.8325 0.8075 9.915 0 10 C-1.2380014 6.42355152 -0.74926071 3.66305234 0 0 Z " fill="#D9D8D8" transform="translate(405,425)"/>
<path d="M0 0 C2.44958298 2.35536825 4.63298406 4.78833797 6.75 7.4375 C9.57670966 10.80780768 12.65115996 12.90009421 16.4609375 15.0546875 C16.96882813 15.36664062 17.47671875 15.67859375 18 16 C18 16.33 18 16.66 18 17 C15.36 17 12.72 17 10 17 C9.76539063 16.27425781 9.53078125 15.54851563 9.2890625 14.80078125 C7.78466556 11.53213699 5.96659552 9.66802714 3.375 7.1875 C2.55773437 6.39730469 1.74046875 5.60710938 0.8984375 4.79296875 C0.27195312 4.20128906 -0.35453125 3.60960937 -1 3 C-0.67 2.01 -0.34 1.02 0 0 Z " fill="#323232" transform="translate(446,559)"/>
<path d="M0 0 C3.3 0 6.6 0 10 0 C9 3 9 3 6.5625 4.4375 C3.84333111 6.09552981 3.10592885 7.08436939 2 10 C1.34 9.67 0.68 9.34 0 9 C0 6.03 0 3.06 0 0 Z " fill="#171716" transform="translate(566,372)"/>
<path d="M0 0 C-0.18359375 1.890625 -0.18359375 1.890625 -1 4 C-3.28515625 5.046875 -3.28515625 5.046875 -6.0625 5.75 C-7.44115234 6.11351562 -7.44115234 6.11351562 -8.84765625 6.484375 C-9.55792969 6.65453125 -10.26820313 6.8246875 -11 7 C-10.2109375 2.1640625 -10.2109375 2.1640625 -8.3125 0.6875 C-5.46515091 -0.15900919 -2.95436294 -0.13428922 0 0 Z " fill="#E7E4E4" transform="translate(589,406)"/>
<path d="M0 0 C-1 3 -1 3 -2.99609375 4.16796875 C-3.80175781 4.50441406 -4.60742188 4.84085937 -5.4375 5.1875 C-6.24058594 5.53167969 -7.04367187 5.87585938 -7.87109375 6.23046875 C-10 7 -10 7 -12 7 C-11.67 5.35 -11.34 3.7 -11 2 C-7.17679443 0.57741188 -4.08718695 -0.24042276 0 0 Z " fill="#DFDEDD" transform="translate(590,399)"/>
<path d="M0 0 C0.33 0.99 0.66 1.98 1 3 C-0.43554025 3.50559908 -1.8735202 4.0042749 -3.3125 4.5 C-4.51326172 4.91765625 -4.51326172 4.91765625 -5.73828125 5.34375 C-8 6 -8 6 -11 6 C-10.75 4.125 -10.75 4.125 -10 2 C-6.82026536 -0.35535899 -3.84875379 -0.17494335 0 0 Z " fill="#E6E4E4" transform="translate(589,413)"/>
<path d="M0 0 C1.32 0.33 2.64 0.66 4 1 C4.33 3.64 4.66 6.28 5 9 C2.69 8.67 0.38 8.34 -2 8 C-1.34 5.36 -0.68 2.72 0 0 Z " fill="#0C0D0C" transform="translate(397,410)"/>
<path d="M0 0 C4.60209225 -0.17700355 6.78370866 -0.10814567 11 2 C5.555 4.475 5.555 4.475 0 7 C0 4.69 0 2.38 0 0 Z " fill="#0B0A0A" transform="translate(348,417)"/>
<path d="M0 0 C0.33 0 0.66 0 1 0 C1.18372036 4.04184793 0.89813257 6.4568192 -1 10 C-0.67 10.66 -0.34 11.32 0 12 C-1.98 12.99 -3.96 13.98 -6 15 C-6.99 14.34 -7.98 13.68 -9 13 C-8.38125 12.938125 -7.7625 12.87625 -7.125 12.8125 C-4.7409707 12.18447843 -4.7409707 12.18447843 -3.875 9.5625 C-3.441875 8.2940625 -3.441875 8.2940625 -3 7 C-2.34 6.34 -1.68 5.68 -1 5 C-0.35232207 2.42938689 -0.35232207 2.42938689 0 0 Z " fill="#272625" transform="translate(389,465)"/>
<path d="M0 0 C4.455 0.99 4.455 0.99 9 2 C7.37660195 3.70884005 5.70680947 5.37446717 4 7 C3.34 7 2.68 7 2 7 C1.34 4.69 0.68 2.38 0 0 Z " fill="#D4D1CD" transform="translate(375,429)"/>
<path d="M0 0 C1.98 0.495 1.98 0.495 4 1 C4 2.32 4 3.64 4 5 C2.35 4.67 0.7 4.34 -1 4 C-0.67 2.68 -0.34 1.36 0 0 Z " fill="#151514" transform="translate(405,430)"/>
<path d="M0 0 C2.86724686 0.57344937 3.8614515 0.8614515 6 3 C3 5 3 5 0.3125 4.625 C-0.450625 4.41875 -1.21375 4.2125 -2 4 C-1.34 2.68 -0.68 1.36 0 0 Z " fill="#EAE8E5" transform="translate(380,433)"/>
<path d="M0 0 C0 0.66 0 1.32 0 2 C1.32 2 2.64 2 4 2 C3.67 3.32 3.34 4.64 3 6 C3 5.01 3 4.02 3 3 C0.03 3.66 -2.94 4.32 -6 5 C-6 4.01 -6 3.02 -6 2 C-2.25 0 -2.25 0 0 0 Z " fill="#353333" transform="translate(586,403)"/>
<path d="M0 0 C0.99 0.33 1.98 0.66 3 1 C2.67 2.98 2.34 4.96 2 7 C1.01 6.67 0.02 6.34 -1 6 C-1.042721 4.33388095 -1.04063832 2.66617115 -1 1 C-0.67 0.67 -0.34 0.34 0 0 Z " fill="#EDEBEA" transform="translate(411,429)"/>
<path d="M0 0 C-2.96687001 1.64826111 -5.65626525 2.44271087 -9 3 C-9 2.34 -9 1.68 -9 1 C-9.66 0.67 -10.32 0.34 -11 0 C-7.01803543 -1.05404945 -4.01804691 -0.84098656 0 0 Z " fill="#212120" transform="translate(589,398)"/>
<path d="M0 0 C1.98 0 3.96 0 6 0 C7.0625 1.875 7.0625 1.875 8 4 C7.67 4.66 7.34 5.32 7 6 C6.01 5.67 5.02 5.34 4 5 C4 4.34 4 3.68 4 3 C2.68 2.67 1.36 2.34 0 2 C0 1.34 0 0.68 0 0 Z " fill="#D9D8D7" transform="translate(404,434)"/>
<path d="M0 0 C0.33 0 0.66 0 1 0 C1 2.31 1 4.62 1 7 C-1.91517292 5.92598892 -3.77810176 5.22189824 -6 3 C-3.03 3.495 -3.03 3.495 0 4 C0 2.68 0 1.36 0 0 Z " fill="#393837" transform="translate(377,423)"/>
<path d="M0 0 C1.125 3.75 1.125 3.75 0 6 C-0.66 6 -1.32 6 -2 6 C-2 7.65 -2 9.3 -2 11 C-2.33 11 -2.66 11 -3 11 C-3.15631692 4.12205567 -3.15631692 4.12205567 -2 1 C-1.34 0.67 -0.68 0.34 0 0 Z " fill="#292A2B" transform="translate(339,436)"/>
<path d="M0 0 C0.66 0 1.32 0 2 0 C2 1.98 2 3.96 2 6 C1.01 6.33 0.02 6.66 -1 7 C-1.66 6.34 -2.32 5.68 -3 5 C-2.34 5 -1.68 5 -1 5 C-0.67 3.35 -0.34 1.7 0 0 Z " fill="#2D2B2C" transform="translate(375,411)"/>
<path d="M0 0 C0.33 0.66 0.66 1.32 1 2 C-2.375 2.625 -2.375 2.625 -6 3 C-6.66 2.34 -7.32 1.68 -8 1 C-3.375 -1.125 -3.375 -1.125 0 0 Z " fill="#2A2928" transform="translate(588,411)"/>
<path d="M0 0 C0.99 0 1.98 0 3 0 C3.33 0.99 3.66 1.98 4 3 C2.35 3.66 0.7 4.32 -1 5 C-0.67 3.35 -0.34 1.7 0 0 Z " fill="#D1CDCD" transform="translate(579,408)"/>
<path d="M0 0 C-0.53625 0.2475 -1.0725 0.495 -1.625 0.75 C-4.56424252 2.29696975 -7.25754408 4.13014369 -10 6 C-9.75 4.125 -9.75 4.125 -9 2 C-6.04454879 -0.11103658 -3.56144099 -0.19785783 0 0 Z " fill="#DFDFDF" transform="translate(364,429)"/>
</svg>
